<svg xmlns="http://www.w3.org/2000/svg" width="22.83" height="28.967" viewBox="0 0 22.83 28.967"><path d="M7.373,0,4.2.835,1.78,2.589,0,5.576l1.69,3.8,2.938,1.633L9.383,13.4H11.74l.568-.7L12.45,7.79l1.518-.154L13.7,6.258,12.627,2.24,10.348,1.6,9.113,1.062Z" transform="translate(5.482 9.269)" fill="#fff"/><g transform="translate(0 0)"><path d="M49.667,151.522l3.339,1.169.167-1.836a2.9,2.9,0,0,1-1.252-3.13c.584-1.962,1.92-2.3,2.629-1.544a13.167,13.167,0,0,1,2.128-3l-5.05,1.252s-.96,3.8-2.88,4.549a16.935,16.935,0,0,1,.918,2.546" transform="translate(-45.492 -133.608)" fill="#212727"/><path d="M10.218,269.066a.561.561,0,0,0-.648.243l-3.225,5.275a.641.641,0,0,0,.486.973,72.273,72.273,0,0,1,16.582,4.034.367.367,0,0,0,.453-.506c-.947-1.935-4.233-7-13.648-10.019" transform="translate(-5.832 -251.062)" fill="#2056a7"/><path d="M19.944,167.81a43.038,43.038,0,0,0-1.688-6.247.417.417,0,0,0-.786.282,44.883,44.883,0,0,1,1.542,5.516.086.086,0,0,1-.085.1H17.822a.417.417,0,0,0-.417.417v4.4a.732.732,0,0,1-.238.55.929.929,0,0,1-.709.232,10.09,10.09,0,0,1-4.645-1.6,31.035,31.035,0,0,0-7.3-3.351.975.975,0,0,0-1.131.422h0L.156,173.813a1.059,1.059,0,0,0,.8,1.607,72.087,72.087,0,0,1,16.482,4.013.784.784,0,0,0,.848-.221.779.779,0,0,0,.118-.863,15.793,15.793,0,0,0-3.755-4.743,10.38,10.38,0,0,0,1.741.291q.071.005.141.005a1.761,1.761,0,0,0,1.2-.458,1.567,1.567,0,0,0,.505-1.162v-3.9a.086.086,0,0,1,.086-.086h1.2a.424.424,0,0,0,.189-.041.418.418,0,0,0,.229-.447M17.6,178.6a72.721,72.721,0,0,0-16.566-4.016.219.219,0,0,1-.178-.122.222.222,0,0,1,.009-.218l3.225-5.275a.144.144,0,0,1,.165-.063,28.5,28.5,0,0,1,8.839,4.482A15.928,15.928,0,0,1,17.6,178.6" transform="translate(0 -150.509)" fill="#212727"/><path d="M87.922,145.943a.418.418,0,0,1-.409-.5l.3-1.438a2.725,2.725,0,0,1-1.473-1.947,3.014,3.014,0,0,1,.812-2.943,2.371,2.371,0,0,1,2.541-.472c.333-.985.738-2.139.971-2.7a.417.417,0,0,1,.772.318c-.264.642-.8,2.314-1.112,3.163a.4.4,0,0,1-.156.2.414.414,0,0,1-.468-.036,1.647,1.647,0,0,0-2.014.173,2.216,2.216,0,0,0-.532,2.118,1.919,1.919,0,0,0,1.245,1.456.429.429,0,0,1,.305.49l-.376,1.795a.418.418,0,0,1-.408.332" transform="translate(-80.49 -126.611)" fill="#212727"/><path d="M48.445,227.325a.418.418,0,0,1-.426-.348,7.019,7.019,0,0,0-.738-2.287.417.417,0,0,1,.711-.438,7.654,7.654,0,0,1,.85,2.587.417.417,0,0,1-.343.48.433.433,0,0,1-.055.005" transform="translate(-44.066 -209.083)" fill="#212727"/><path d="M25.178,27.715c-1.4-4.765-6.139-7.569-10.584-6.263l-.092.03c-.045,0-.089-.009-.134-.012-.046.032-.09.065-.134.1A8.739,8.739,0,0,0,9.079,32.445a22.46,22.46,0,0,1-1.552,4.062,6.541,6.541,0,0,0,5.8-5.3h0l6.51-1.92h0c5.675,4.409,9.6,1,9.6,1s-2.4-1.374-4.259-2.573" transform="translate(-7.024 -19.72)" fill="#3a85e3"/><path d="M88.911,2.168a.417.417,0,0,1-.25-.083l-1.075-.806a.429.429,0,0,1-.1-.584A.417.417,0,0,1,88.072.6l.481.361A.158.158,0,0,0,88.8.892l.236-.61a.429.429,0,0,1,.534-.259.417.417,0,0,1,.25.544L89.3,1.9a.418.418,0,0,1-.389.266" transform="translate(-81.567 -0.001)" fill="#212727"/><path d="M24.037,24.436a.418.418,0,0,0-.208-.322c-.022-.013-2.145-1.23-3.92-2.357a.625.625,0,0,1-.259-.328c-1.591-4.761-6.443-7.525-10.99-6.189l-.027.008-.025,0a.419.419,0,0,0-.316.087l-.054.045A9.146,9.146,0,0,0,2.772,26.42a.718.718,0,0,1-.019.414c-.239.69-.822,2.328-1.418,3.68a.432.432,0,0,0-.013.331.418.418,0,0,0,.39.268h.027a7.187,7.187,0,0,0,6.253-5.432l5.944-1.746c5.789,4.369,9.918.9,9.96.859a.417.417,0,0,0,.142-.356m-13.043-8.7a8.467,8.467,0,0,1,7.775,5.7.187.187,0,0,1-.124.243l-4.177,1.227a.132.132,0,0,1-.166-.1A18.852,18.852,0,0,0,13.2,19.6a8.161,8.161,0,0,0-3.05-3.815,7.431,7.431,0,0,1,.841-.049M7.855,24.717c-.5-1.5-1.75-6.11.648-8.457a.416.416,0,0,1,.4-.106c2.877.773,4.228,5.376,4.6,6.905a.132.132,0,0,1-.091.158L8.017,24.8a.132.132,0,0,1-.163-.085M7,16.9a8.185,8.185,0,0,0-.681,4.735,16.611,16.611,0,0,0,.729,3.308.132.132,0,0,1-.088.168l-3.215.945a.187.187,0,0,1-.236-.137A8.462,8.462,0,0,1,7,16.9M2.391,30.166c.464-1.122.885-2.3,1.106-2.928a.547.547,0,0,1,.362-.344l3.19-.937a6.124,6.124,0,0,1-4.658,4.21m12.558-6.531,3.844-1.129a1.159,1.159,0,0,1,.943.13c1.154.725,2.4,1.458,3.1,1.869-1.125.65-4.028,1.769-7.889-.87" transform="translate(-1.208 -13.909)" fill="#212727"/></g></svg>