<svg xmlns="http://www.w3.org/2000/svg" width="69.812" height="71.409" viewBox="0 0 69.812 71.409"><defs><style>.a{fill:#fff;}.b,.c,.g{fill:none;}.b,.e,.g{stroke:#2056a7;}.b,.g{stroke-linecap:round;stroke-linejoin:round;}.b,.e{stroke-width:1.25px;}.d{fill:#d6e3f3;}.e{fill:#d9edfb;}.f{fill:#2056a7;}.g{stroke-width:3px;}</style></defs><g transform="translate(-1085.91 -1552.375)"><g transform="translate(17807.094 20717.133)"><path class="a" d="M56.292,35.89v0Z" transform="translate(-16716.887 -19163.287)"/><line class="b" y2="17.362" transform="translate(-16660.602 -19144.754)"/><path class="c" d="M40.27.5H51.4a6.093,6.093,0,0,1,6.093,6.093v7.474" transform="translate(-16718.09 -19164.633)"/><path class="b" d="M40.27.5H51.4a6.093,6.093,0,0,1,6.093,6.093v7.474" transform="translate(-16718.09 -19164.633)"/><path class="a" d="M11.591,6.169.5,17.261V70.072H54.369V6.169Z" transform="translate(-16721.059 -19164.205)"/><path class="b" d="M11.591,6.169.5,17.261V70.072H54.369V6.169Z" transform="translate(-16721.059 -19164.205)"/><path class="d" d="M11.591,17.261V6.17L.5,17.261Z" transform="translate(-16721.059 -19164.205)"/><path class="b" d="M11.591,17.261V6.17L.5,17.261Z" transform="translate(-16721.059 -19164.205)"/><path class="e" d="M47.288,26.653A14.848,14.848,0,1,1,32.44,11.805,14.848,14.848,0,0,1,47.288,26.653" transform="translate(-16725.35 -19158.387)"/><path class="f" d="M27.773,27.325a4.814,4.814,0,0,1-1.5-3.489v-2a4.84,4.84,0,1,1,9.68,0v2a4.814,4.814,0,0,1-1.5,3.489,7.25,7.25,0,0,1,3.915,6.437H23.858a7.25,7.25,0,0,1,3.915-6.437" transform="translate(-16724.922 -19157.779)"/><g transform="translate(-16690.299 -19132.4)"><line class="g" x2="10.909" y2="10.934" transform="translate(23.935 24.048)"/><path class="a" d="M87.494,63.232a13.859,13.859,0,1,1-13.859-13.86,13.86,13.86,0,0,1,13.859,13.86" transform="translate(-59.775 -49.372)"/><path class="b" d="M87.494,63.232a13.859,13.859,0,1,1-13.859-13.86A13.86,13.86,0,0,1,87.494,63.232Z" transform="translate(-59.775 -49.372)"/><path class="d" d="M77.193,77.673A10.884,10.884,0,1,1,88.076,66.79,10.9,10.9,0,0,1,77.193,77.673" transform="translate(-63.332 -52.932)"/><path class="b" d="M77.193,77.673A10.884,10.884,0,1,1,88.076,66.79,10.9,10.9,0,0,1,77.193,77.673Z" transform="translate(-63.332 -52.932)"/><line class="a" x2="10.909" y2="10.934" transform="translate(23.951 24.048)"/><path class="a" d="M128.917,118.7a2,2,0,0,1-2.822,0l-7.568-7.568a2,2,0,0,1,0-2.822l.256-.256a2,2,0,0,1,2.822,0l7.568,7.568a2,2,0,0,1,0,2.822Z" transform="translate(-91.455 -81.014)"/><path class="b" d="M128.917,118.7a2,2,0,0,1-2.822,0l-7.568-7.568a2,2,0,0,1,0-2.822l.256-.256a2,2,0,0,1,2.822,0l7.568,7.568a2,2,0,0,1,0,2.822Z" transform="translate(-91.455 -81.014)"/></g></g></g></svg>