<svg xmlns="http://www.w3.org/2000/svg" width="80.984" height="76.493" viewBox="0 0 80.984 76.493"><defs><style>.a,.c{fill:#fff;}.b,.g,.i,.k{fill:none;}.b,.c,.d,.g{stroke:#2056a7;}.b,.c,.g,.i{stroke-linecap:round;}.b,.c,.i{stroke-linejoin:round;}.b,.c,.d,.g,.i{stroke-width:1.25px;}.d{fill:#d9edfb;}.e{fill:#2056a7;}.f{fill:#d6e3f3;}.h{fill:#f5ecc9;}.i{stroke:#efc577;}.j{stroke:none;}</style></defs><g transform="translate(-335.141 -1548.132)"><g transform="translate(22499.205 20622.666)"><g transform="translate(-22163.439 -19073.666)"><path class="a" d="M58.35,25.244,33.47,2.088a4.089,4.089,0,0,0-5.554,0L2.657,25.759A6.194,6.194,0,0,0,1,30.347V64.413A3.932,3.932,0,0,0,4.972,68.3H56.6a3.932,3.932,0,0,0,3.972-3.891V30.347a7.367,7.367,0,0,0-2.223-5.1" transform="translate(5.394 -1)"/><path class="b" d="M58.35,25.244,33.47,2.088a4.089,4.089,0,0,0-5.554,0L2.657,25.759A6.194,6.194,0,0,0,1,30.347V64.413A3.932,3.932,0,0,0,4.972,68.3H56.6a3.932,3.932,0,0,0,3.972-3.891V30.347A7.367,7.367,0,0,0,58.35,25.244Z" transform="translate(5.297 -1)"/><g transform="translate(13.369 8.46)"><g class="c"><rect class="j" width="44.589" height="53.922"/><rect class="k" x="0.625" y="0.625" width="43.339" height="52.672"/></g><path class="d" d="M42.213,24.116A12.311,12.311,0,1,1,29.9,11.805,12.31,12.31,0,0,1,42.213,24.116" transform="translate(-7.608 0.12)"/><path class="e" d="M27.1,24.575a3.355,3.355,0,0,1-1.243-2.561v-1.47a3.8,3.8,0,0,1,4.013-3.552,3.8,3.8,0,0,1,4.013,3.552v1.47a3.355,3.355,0,0,1-1.243,2.561A5.286,5.286,0,0,1,35.891,29.3H23.858A5.286,5.286,0,0,1,27.1,24.575" transform="translate(-7.58 0.971)"/></g><path class="f" d="M28.1,94.018,1,67.039v34.98a4.377,4.377,0,0,0,4.155,4.22h51.76c2.158,0,3.658-2.026,3.658-4.22V67.039L33.657,94.018a3.9,3.9,0,0,1-5.554,0" transform="translate(5.297 -38.935)"/><path class="b" d="M28.1,94.018,1,67.039v34.98a4.377,4.377,0,0,0,4.155,4.22h51.76c2.158,0,3.658-2.026,3.658-4.22V67.039L33.657,94.018A3.9,3.9,0,0,1,28.1,94.018Z" transform="translate(5.297 -38.935)"/><line class="a" y1="14.489" x2="13.618" transform="translate(11.759 48.843)"/><line class="b" y1="14.489" x2="13.618" transform="translate(10.875 49.794)"/><line class="a" x1="13.618" y1="14.489" transform="translate(46.294 48.843)"/><line class="b" x1="13.618" y1="14.489" transform="translate(47.422 49.794)"/><path class="a" d="M93.512,103.523a14.3,14.3,0,1,1-14.3-14.3,14.3,14.3,0,0,1,14.3,14.3" transform="translate(-13.778 -42.958)"/><path class="g" d="M14.3,0A14.3,14.3,0,1,1,0,14.3,14.3,14.3,0,0,1,14.3,0Z" transform="translate(51.14 46.268)"/><path class="h" d="M95.456,111.36l-7.95,7.95L82.4,114.2l-2.18,2.18,5.509,5.509,1.777,1.777,1.777-1.777,8.352-8.353Z" transform="translate(-22.917 -56.178)"/><path class="i" d="M95.456,111.36l-7.95,7.95L82.4,114.2l-2.18,2.18,5.509,5.509,1.777,1.777,1.777-1.777,8.352-8.353Z" transform="translate(-22.917 -56.178)"/><line class="b" y1="14.748" transform="translate(31.206 75) rotate(90)"/><path class="b" d="M0,11.524H9.452a5.175,5.175,0,0,0,5.176-5.175V0" transform="translate(11.524 60.37) rotate(90)"/></g></g></g></svg>