<svg xmlns="http://www.w3.org/2000/svg" width="81.605" height="85.75" viewBox="0 0 81.605 85.75"><defs><style>.a,.f{fill:none;}.a,.c{stroke:#2056a7;stroke-width:1.5px;}.a{stroke-linecap:round;stroke-linejoin:round;}.b{fill:#fff;}.c{fill:#d9edfb;}.d{fill:#2056a7;}.e{fill:#d6e3f3;}</style></defs><g transform="translate(-771.785 -2165)"><g transform="translate(-289.594 -110)"><g transform="translate(1062.129 2275)"><g transform="translate(0 68.495)"><line class="a" y1="16.638" transform="translate(35.204 16.505) rotate(90)"/><path class="a" d="M0,13H10.663A5.838,5.838,0,0,0,16.5,7.162V0" transform="translate(13) rotate(90)"/></g><g transform="translate(7.709 0)"><rect class="b" width="50.481" height="56.09" transform="translate(8.974 1.122)"/><path class="c" d="M45.367,25.693A13.888,13.888,0,1,1,31.48,11.805,13.887,13.887,0,0,1,45.367,25.693" transform="translate(2.618 -4.7)"/><path class="d" d="M27.52,25.546a3.785,3.785,0,0,1-1.4-2.889V21a4.291,4.291,0,0,1,4.528-4.007A4.291,4.291,0,0,1,35.172,21v1.658a3.785,3.785,0,0,1-1.4,2.889,5.963,5.963,0,0,1,3.662,5.329H23.858a5.963,5.963,0,0,1,3.662-5.329" transform="translate(3.452 -3.076)"/><path class="e" d="M72.276,63.279H1.007L7.151,51.355H66.132Z" transform="translate(-0.154 -20.778)"/><path class="a" d="M72.276,63.279H1.007L7.151,51.355H66.132Z" transform="translate(-0.154 -20.778)"/><rect class="a" width="50.481" height="56.09" rx="1" transform="translate(8.974 1.122)"/><rect class="b" width="45.994" height="34.776" rx="4" transform="translate(15.705 25.801)"/><rect class="a" width="45.994" height="34.776" rx="4" transform="translate(15.705 25.801)"/><rect class="b" width="47.115" height="34.776" rx="4" transform="translate(20.192 30.288)"/><rect class="a" width="47.115" height="34.776" rx="4" transform="translate(20.192 30.288)"/><rect class="b" width="47.115" height="34.776" rx="4" transform="translate(6.731 35.897)"/><rect class="a" width="47.115" height="34.776" rx="4" transform="translate(6.731 35.897)"/><path class="e" d="M71.082,71H46.9a10.723,10.723,0,0,1-21.441,0H2.2A1.4,1.4,0,0,0,1,72.4v33.773a1.141,1.141,0,0,0,1.2,1.192H71.082c1.167,0,1.465-.534,1.465-1.192V72.4A1.649,1.649,0,0,0,71.082,71" transform="translate(-0.152 -28.71)"/><path class="a" d="M71.082,71H46.9a10.723,10.723,0,0,1-21.441,0H2.2A1.4,1.4,0,0,0,1,72.4v33.773a1.141,1.141,0,0,0,1.2,1.192H71.082c1.167,0,1.465-.534,1.465-1.192V72.4A1.649,1.649,0,0,0,71.082,71Z" transform="translate(-0.152 -28.71)"/><rect class="f" width="72.917" height="79.647" transform="translate(0)"/></g></g></g></g></svg>